<svg width="121px" height="29px" viewBox="0 0 121 29" version="1.1" xmlns="http://www.w3.org/2000/svg" xmlns:xlink="http://www.w3.org/1999/xlink">
    <g id="Page-1" stroke="none" stroke-width="1" fill="none" fill-rule="evenodd">
        <g id="logo" transform="translate(-338.000000, -219.000000)" fill="#1A1919">
            <g id="Group-9" transform="translate(338.000000, 219.000000)">
                <path d="M23.6855,0.1655 C23.8615,0.1655 23.9655,0.2695 23.9655,0.4455 L23.9655,20.9145 C23.9655,21.0895 23.8615,21.1945 23.6855,21.1945 L22.2845,21.1945 C22.1085,21.1945 22.0025,21.0895 22.0025,20.9145 L22.0025,3.7405 L21.8985,3.7405 C20.8815,5.4575 20.0765,6.7545 19.4795,7.6305 L12.2245,17.9355 L4.9695,7.6305 C4.6195,7.1405 4.2335,6.5795 3.8135,5.9485 C3.3925,5.3175 3.0775,4.7915 2.8315,4.4055 C2.5865,4.0205 2.4465,3.8105 2.4115,3.7745 L2.3405,3.7745 L2.3405,20.9495 C2.3405,21.1245 2.2365,21.2295 2.0605,21.2295 L0.6595,21.2295 C0.4835,21.2295 0.3775,21.1245 0.3775,20.9495 L0.3775,0.4805 C0.3775,0.3055 0.4835,0.2005 0.6595,0.2005 L1.4995,0.2005 C1.7095,0.2005 1.8855,0.3055 2.0605,0.5515 L12.1195,14.8865 L12.1895,14.8865 L22.2135,0.5515 C22.3885,0.3055 22.5645,0.2005 22.7745,0.2005 L23.6855,0.1655 Z" id="Fill-3"></path>
                <path d="M39.4863,11.2407 L39.4863,19.4767 L53.6813,19.4767 C53.7523,19.4767 53.8223,19.5117 53.8913,19.5827 C53.9623,19.6527 53.9973,19.7227 53.9973,19.7927 L53.9973,20.9147 C53.9973,20.9847 53.9623,21.0547 53.8913,21.1247 C53.8223,21.1947 53.7523,21.2297 53.6813,21.2297 L37.8043,21.2297 C37.6293,21.2297 37.5233,21.1247 37.5233,20.9497 L37.5233,0.4807 C37.5233,0.3047 37.6293,0.2007 37.8043,0.2007 L53.3313,0.2007 C53.4013,0.2007 53.4713,0.2357 53.5413,0.3047 C53.6113,0.3757 53.6463,0.4457 53.6463,0.5157 L53.6463,1.6367 C53.6463,1.7077 53.6113,1.7777 53.5413,1.8467 C53.4713,1.9177 53.4013,1.9527 53.3313,1.9527 L39.4863,1.9527 L39.4863,9.4887 L52.2793,9.4887 C52.3493,9.4887 52.4203,9.5237 52.4903,9.5937 C52.5603,9.6637 52.5943,9.7337 52.5943,9.8037 L52.5943,10.9257 C52.5943,10.9957 52.5603,11.0657 52.4903,11.1367 C52.4203,11.2057 52.3493,11.2407 52.2793,11.2407 L39.4863,11.2407 Z" id="Fill-5"></path>
                <path d="M85.0459,21.23 L70.8859,6.684 C69.6239,5.387 68.6429,4.301 67.9419,3.425 L67.8719,3.425 L67.8719,20.985 C67.8719,21.16 67.7669,21.23 67.5919,21.23 L66.1899,21.23 C66.0149,21.23 65.9089,21.16 65.9089,20.985 L65.9089,0.516 C65.9089,0.34 66.0149,0.236 66.1899,0.236 L67.2409,0.236 L81.2259,14.675 C81.6109,15.061 82.0669,15.552 82.5929,16.113 L83.8549,17.515 C84.2049,17.9 84.3099,18.076 84.2749,18.041 L84.3799,18.041 L84.3799,0.481 C84.3799,0.305 84.4849,0.201 84.6599,0.201 L86.0629,0.201 C86.2369,0.201 86.3429,0.305 86.3429,0.481 L86.3429,20.95 C86.3429,21.125 86.2369,21.23 86.0629,21.23 L85.0459,21.23 Z" id="Fill-6"></path>
                <path d="M118.127,0.481 C118.127,0.305 118.231,0.201 118.407,0.201 L119.809,0.201 C119.984,0.201 120.09,0.305 120.09,0.481 L120.09,11.452 C120.09,14.781 119.178,17.304 117.356,19.022 C115.533,20.74 113.045,21.545 109.89,21.545 C106.735,21.545 104.247,20.705 102.425,18.987 C100.602,17.269 99.69,14.746 99.69,11.452 L99.69,0.481 C99.69,0.305 99.796,0.201 99.971,0.201 L101.373,0.201 C101.548,0.201 101.653,0.305 101.653,0.481 L101.653,11.452 C101.653,14.255 102.39,16.358 103.826,17.76 C105.264,19.162 107.262,19.863 109.82,19.863 C112.448,19.863 114.481,19.162 115.919,17.76 C117.356,16.358 118.022,14.255 118.057,11.452 L118.127,0.481 Z" id="Fill-7"></path>
                <path d="M86.3535,27.127 C86.3535,27.057 86.2855,26.986 86.1825,26.917 C86.0795,26.846 85.9775,26.799 85.8745,26.799 L83.3065,26.799 L68.9615,26.799 L66.3945,26.799 C66.2915,26.799 66.1895,26.846 66.0855,26.917 C65.9835,26.986 65.9145,27.057 65.9145,27.127 L65.9145,28.251 C65.9145,28.257 65.9215,28.263 65.9225,28.27 L65.9145,28.274 C65.9145,28.344 65.9495,28.415 66.0515,28.485 C66.1055,28.509 66.1595,28.51 66.2125,28.522 C66.2465,28.533 66.2785,28.54 66.3115,28.544 C66.3285,28.545 66.3435,28.555 66.3595,28.555 L66.3945,28.555 L85.8745,28.555 L85.9085,28.555 C85.9245,28.555 85.9405,28.545 85.9565,28.544 C85.9895,28.54 86.0225,28.533 86.0555,28.522 C86.1095,28.51 86.1635,28.509 86.2165,28.485 C86.3195,28.415 86.3535,28.344 86.3535,28.274 L86.3445,28.27 C86.3465,28.263 86.3535,28.257 86.3535,28.251 L86.3535,27.127 Z" id="Fill-8"></path>
            </g>
        </g>
    </g>
</svg>
